<svg version="1.2" xmlns="http://www.w3.org/2000/svg" viewBox="0 0 256 256" width="256" height="256">
	<style>
		.s0 { fill: #ffffff } 
		.s1 { fill: #5c6bc0 } 
	</style>
	<g id="Git">
		<path class="s0" d="m128.01 256c-69.22 0-125.17-57.28-125.17-128.14 0-70.86 55.95-128.14 125.17-128.14 69.21 0 125.16 57.28 125.16 128.14 0 70.86-55.95 128.14-125.16 128.14z"/>
		<path class="s1" d="m128.01 0.21c-70.69 0-128.01 57.3-128.01 127.99 0 56.56 36.68 104.54 87.53 121.46 6.4 1.18 8.75-2.78 8.75-6.16 0-3.05-0.12-13.14-0.17-23.83-35.61 7.74-43.13-15.1-43.13-15.1-5.82-14.79-14.21-18.73-14.21-18.73-11.62-7.95 0.87-7.78 0.87-7.78 12.85 0.9 19.62 13.19 19.62 13.19 11.42 19.57 29.95 13.91 37.25 10.64 1.15-8.28 4.46-13.92 8.13-17.12-28.44-3.24-58.32-14.22-58.32-63.26 0-13.97 5-25.39 13.19-34.36-1.33-3.21-5.71-16.23 1.24-33.86 0 0 10.76-3.44 35.21 13.12 10.21-2.84 21.16-4.26 32.05-4.31 10.87 0.05 21.83 1.47 32.06 4.31 24.43-16.56 35.17-13.12 35.17-13.12 6.97 17.63 2.58 30.66 1.25 33.87 8.2 8.97 13.17 20.39 13.17 34.36 0 49.16-29.95 59.99-58.45 63.16 4.59 3.97 8.68 11.76 8.68 23.7 0 17.13-0.14 30.92-0.14 35.13 0 3.4 2.3 7.4 8.79 6.14 50.83-16.94 87.46-64.91 87.46-121.45 0-70.69-57.31-127.99-127.99-127.99z"/>
	</g>
	<g id="Layer 1">
	</g>
</svg>