<svg version="1.2" xmlns="http://www.w3.org/2000/svg" viewBox="0 0 256 256" width="256" height="256">
	<style>
		.s0 { fill: #fa5c5c } 
		.s1 { fill: #ffffff } 
	</style>
	<path class="s0" d="m128 256c-70.78 0-128-57.22-128-128 0-70.78 57.22-128 128-128 70.78 0 128 57.22 128 128 0 70.78-57.22 128-128 128z"/>
	<path class="s1" d="m80.67 71.15c-5.57 3.33-16.57 15.95-16.7 19.28v5.5c0 6.95 6.5 13.07 12.4 13.07 7.1 0 13-5.87 13-12.85 0 6.98 5.71 12.85 12.8 12.85 7.1 0 12.6-5.87 12.6-12.85 0 6.98 6.08 12.85 13.15 12.85h0.13c7.1 0 13.15-5.87 13.15-12.85 0 6.98 5.53 12.85 12.6 12.85 7.1 0 12.8-5.87 12.8-12.85 0 6.98 5.9 12.85 13 12.85 5.9 0 12.4-6.1 12.4-13.07v-5.5c-0.1-3.3-11.1-15.95-16.7-19.28-17.35-0.6-29.4-0.72-47.32-0.7-17.93 0.02-42.36 0.27-47.31 0.7zm34.03 34.52q-1.04 1.83-2.5 3.2c-2.67 2.63-6.35 4.23-10.38 4.23q0.01 0-0.02 0c-4.05 0-7.73-1.63-10.4-4.25-0.98-0.95-1.7-1.98-2.38-3.15-0.67 1.17-1.6 2.2-2.57 3.15-2.68 2.62-6.35 4.22-10.4 4.22q0.01 0-0.03 0c-0.47 0-1-0.12-1.4-0.27-0.57 5.92-0.8 11.6-0.9 15.72v0.03c0 2.1-0.02 3.82-0.02 6.22 0.1 12.45-1.23 40.35 5.5 47.2 10.42 2.43 29.57 3.53 48.8 3.55 19.22 0 38.4-1.12 48.8-3.55 6.72-6.85 5.37-34.75 5.5-47.2 0-2.4-0.03-4.12-0.03-6.22v-0.03c-0.07-4.12-0.32-9.8-0.9-15.72-0.4 0.15-0.92 0.27-1.4 0.27-4.05 0-7.72-1.62-10.4-4.25-0.97-0.95-1.9-1.97-2.57-3.15-0.68 1.18-1.43 2.2-2.38 3.15-2.67 2.63-6.35 4.25-10.4 4.25q0.01 0-0.02 0c-4.05 0-7.7-1.62-10.38-4.25q-1.43-1.38-2.45-3.15l-0.02-0.07q-1.05 1.82-2.48 3.2c-2.67 2.62-6.35 4.25-10.4 4.25q0.01 0-0.02 0-0.21 0-0.43 0-0.21 0-0.42 0 0.01 0-0.03 0c-4.05 0-7.72-1.63-10.4-4.25q-1.43-1.39-2.42-3.15zm-10.7 13.82c4.25 0.03 8 0 12.65 5.1 3.67-0.37 7.5-0.57 11.32-0.57 3.83 0 7.68 0.17 11.33 0.57 4.7-5.1 8.45-5.07 12.67-5.1 2 0 10 0 15.58 15.65l5.97 21.48c4.45 15.97-1.42 16.37-8.72 16.37-10.8-0.4-16.8-8.25-16.8-16.12-6 0.97-13 1.47-20 1.47-7 0-14-0.5-20-1.47 0 7.87-6 15.72-16.83 16.15-7.3-0.03-13.17-0.4-8.72-16.38l6-21.47c5.55-15.68 13.55-15.68 15.55-15.68zm24 12.3c0 0.03-11.4 10.48-13.45 14.2l7.45-0.3v6.5c0 0.3 3 0.18 6 0.05 3 0.15 6 0.25 6-0.05v-6.5l7.45 0.3c-2.05-3.7-13.45-14.17-13.45-14.2z"/>
</svg>