<svg version="1.2" xmlns="http://www.w3.org/2000/svg" viewBox="0 0 256 256" width="256" height="256">
	<style>
		.s0 { fill: #0077b5 } 
		.s1 { fill: #ffffff } 
	</style>
	<path class="s0" d="m128 256c-70.78 0-128-57.22-128-128 0-70.78 57.22-128 128-128 70.78 0 128 57.22 128 128 0 70.78-57.22 128-128 128z"/>
	<path fill-rule="evenodd" class="s1" d="m92.37 79.05c0 8.37-6.3 15.07-16.42 15.07h-0.18c-9.74 0-16.04-6.7-16.04-15.07 0-8.54 6.49-15.05 16.41-15.05 9.93 0 16.04 6.51 16.23 15.05zm-1.91 26.96v87.16h-29.01v-87.16zm104.61 87.16v-49.97c0-26.77-14.31-39.23-33.4-39.23-15.4 0-22.29 8.46-26.14 14.39v-12.34h-29.01c0.38 8.18 0 87.15 0 87.15h29.01v-48.67c0-2.61 0.18-5.21 0.95-7.07 2.1-5.2 6.87-10.59 14.89-10.59 10.5 0 14.69 7.99 14.69 19.7v46.63z"/>
</svg>