<svg version="1.2" xmlns="http://www.w3.org/2000/svg" viewBox="0 0 256 256" width="256" height="256">
	<style>
		.s0 { fill: #42a5f5 } 
		.s1 { fill: #6d4c41 } 
		.s2 { fill: #9ccc65 } 
		.s3 { fill: #1e88e5 } 
		.s4 { fill: #757575 } 
		.s5 { fill: #8d6e63 } 
		.s6 { fill: #aed581 } 
		.s7 { fill: #a1887f } 
		.s8 { fill: #7f877f } 
		.s9 { fill: #806d59 } 
		.s10 { fill: #eeeeee } 
	</style>
	<g id="Layer 1">
		<path class="s0" d="m39.54 25.57c20.22-15.57 49.85-25.57 88.91-25.57 80.95 0 121.43 42.96 121.43 89.5 0 13.73-3.41 29.23-9.24 45.1-3.24-0.2-150.76-89.8-201.1-109.03z"/>
		<path class="s1" d="m60.39 84.67c0.51 0.19 1.02 0.45 1.53 0.71-4.87-2.05-9.86-3.78-15.05-5.12-8.72-2.24-17.89-3.46-27.37-3.46-2.05 0-4.04 0.06-6.02 0.13 9.74-11.14 21.28-20.61 34.28-27.91 2.76 4.29 7.31 11.2 12.76 18.56 2.63 3.59 5.44 7.3 8.33 10.88-2.95 1.92-5.77 4.04-8.46 6.21z"/>
		<path class="s2" d="m19.51 142.91c-7.8-18.75-12.51-37.32-12.51-53.44 0-4.03 0.32-8.06 0.96-12.03 3.78-0.45 7.63-0.64 11.54-0.64 14.46 0 28.25 2.81 40.87 7.91-15.29 17.69-28.09 36.89-40.86 58.2z"/>
		<path class="s3" d="m75.06 37.44c-9.35 2.75-18.13 6.53-26.47 11.14-0.25 0.12-0.57 0.32-0.83 0.44q-0.09-0.09-0.19-0.38c-1.09-2.5-5.38-13.95-7.12-21.89-0.13-0.51-0.19-1.09-0.32-1.6 8.53-6.53 18.78-12.03 30.7-16.19 0.2 9.86 1.67 19.39 4.23 28.48z"/>
		<path class="s4" d="m47.76 49.02c-13.01 7.36-24.61 16.84-34.28 27.97-1.86 0.07-3.72 0.26-5.51 0.45 3.01-19.84 13.71-38.34 32.17-52.29 1.54 8.39 6.92 22.6 7.62 23.87z"/>
		<path class="s5" d="m7.19 83.97l0.07-0.07c-0.2 1.86-0.26 3.72-0.26 5.57 0-1.85 0.06-3.65 0.19-5.5z"/>
		<path class="s6" d="m128.45 185.6c0 24.26-7.89 46.59-21.35 64.64-0.19-0.06-0.32-0.13-0.45-0.19-31.98-16.13-68.44-62.15-87.16-107.14 7.76-23.23 22.11-43.39 40.89-58.24 39.87 16.19 68.07 55.3 68.07 100.93z"/>
		<path class="s5" d="m91.79 104.19c-0.32-0.25-0.64-0.51-0.9-0.77-4.68-4.03-9.61-7.68-14.93-10.88-1.34-0.83-2.76-1.66-4.23-2.43-1.6-0.96-3.27-1.79-5-2.56-1.6-0.77-3.21-1.53-4.81-2.17-0.51-0.26-1.02-0.52-1.53-0.71 2.69-2.17 5.51-4.29 8.46-6.21 6.02 7.49 13.64 16.2 22.94 25.73z"/>
		<path class="s5" d="m89.8 239.1c-0.38-0.25-0.7-0.51-1.02-0.76 0.26 0.25 0.51 0.44 0.77 0.64 0.19 0.12 0.38 0.25 0.51 0.38 0.19 0.13 0.32 0.26 0.51 0.38 0.26 0.26 0.58 0.45 0.83 0.64 0.58 0.45 1.16 0.84 1.67 1.28 0.38 0.26 0.7 0.52 1.09 0.71-1.47-1.03-2.95-2.11-4.36-3.27zm4.87 3.65c0.84 0.64 1.67 1.15 2.51 1.73 0.44 0.32 0.89 0.58 1.34 0.83-1.28-0.83-2.57-1.66-3.85-2.56zm-34.28-158.08l-0.07 0.07c0.52 0.19 1.09 0.38 1.6 0.64-0.51-0.26-1.02-0.52-1.53-0.71z"/>
		<path class="s5" d="m61.92 85.38c-0.51-0.26-1.08-0.45-1.6-0.64l0.07-0.07c0.51 0.19 1.02 0.45 1.53 0.71zm26.86 152.96c0.32 0.25 0.64 0.51 1.02 0.76-0.06 0-0.19-0.06-0.25-0.12-0.26-0.2-0.51-0.39-0.77-0.64zm32.68-14.34c-3.59 9.47-8.39 18.3-14.35 26.24 7.44 3.71 14.67 5.76 21.34 5.76 0.83 0 1.73-0.06 2.63-0.13 0.45 0 0.9-0.06 1.35-0.13 0.19 0 0.32 0 0.51-0.06 8.01-1.09 17.18-5.12 26.79-11.2 1.66-1.09 3.4-2.3 5.06-3.52 29.93-22.27 60.89-65.54 75.82-106.37-3.79-17.15-10.9-33.02-20.77-46.91-0.76-0.51-1.47-1.02-2.24-1.54-12.11-9.98-26.08-17.72-41.4-22.59-11.99-3.9-24.81-5.95-38.14-5.95-17.24 0-33.71 3.52-48.65 9.79 15.89 24.13 45.44 54.91 45.44 105.41 0 28.1-11.79 48.51-13.26 50.94-0.06 0.07-0.13 0.2-0.13 0.26zm-26.79 18.75c1.28 0.9 2.57 1.73 3.85 2.56-0.45-0.25-0.9-0.51-1.34-0.83-0.84-0.58-1.67-1.09-2.51-1.73zm-4.87-3.65c1.41 1.16 2.89 2.24 4.36 3.27-0.38-0.19-0.7-0.45-1.09-0.71-0.51-0.44-1.08-0.83-1.66-1.28-0.26-0.19-0.58-0.38-0.83-0.64-0.26-0.19-0.52-0.38-0.78-0.64z"/>
		<path class="s5" d="m240.61 134.59c-14.93 40.83-45.89 84.1-75.82 106.37-1.66 1.22-3.4 2.43-5.06 3.52-9.61 6.08-18.78 10.11-26.79 11.2-0.19 0.06-0.32 0.06-0.51 0.06-0.45 0.07-0.9 0.13-1.35 0.13-0.89 0.07-1.79 0.13-2.63 0.13-6.66 0-13.9-2.05-21.34-5.76 5.96-7.94 10.76-16.77 14.35-26.24 0 0 0.07-0.06 0.13-0.26 0.19-0.32 0.58-0.96 1.09-1.92 0.45-0.83 0.96-1.85 1.6-3.13 0.7-1.35 1.41-2.95 2.11-4.74 0.39-0.89 0.77-1.85 1.22-2.88 0.38-1.02 0.77-2.11 1.15-3.2 1.28-3.58 2.5-7.68 3.53-12.16 0.25-1.09 0.44-2.24 0.7-3.45 1.15-5.89 1.86-12.42 1.86-19.46 0-39.23-17.82-66.56-33.33-88.13-4.36-6.21-8.59-11.9-12.11-17.28 14.93-6.27 31.4-9.79 48.64-9.79 13.33 0 26.15 2.05 38.13 5.95 15.32 4.87 29.29 12.61 41.41 22.59 0.76 0.52 1.47 1.03 2.24 1.54 5.26 7.42 9.74 15.42 13.33 23.87q4.83 11.04 7.45 23.04z"/>
		<path class="s7" d="m233.17 111.55c-14.36 6.47-30.32 10.05-47.04 10.05-33.45 0-63.58-14.21-84.6-36.93-4.35-6.21-8.58-11.9-12.11-17.28 14.93-6.27 31.4-9.79 48.65-9.79 13.33 0 26.15 2.05 38.13 5.95 15.31 4.87 29.28 12.61 41.4 22.59 0.77 0.52 1.47 1.03 2.24 1.54 5.25 7.42 9.74 15.42 13.33 23.87z"/>
		<path class="s8" d="m33.43 58.43c-7.29 5.51-14.01 11.71-19.97 18.56-0.38 0-0.83 0-1.21 0.07-1.47 0.06-2.88 0.19-4.29 0.38 0.26-1.66 0.58-3.39 0.96-5.06 0.32-1.66 0.77-3.32 1.28-4.99 0.45-1.53 0.96-3.01 1.47-4.54 0.07-0.13 0.07-0.19 0.13-0.32 0.58-1.6 1.28-3.2 1.98-4.8 1.92-0.07 3.78-0.13 5.7-0.13 4.74 0 9.41 0.26 13.95 0.83z"/>
		<g>
			<path class="s9" d="m68.82 78.46c-2.94 1.99-5.76 4.04-8.51 6.28-12.09-4.93-25.21-7.68-39.04-7.88-0.57-0.06-1.21-0.06-1.79-0.06-1.73 0-3.39 0.06-5.12 0.13-0.32 0-0.58 0-0.9 0.06 5.96-6.85 12.68-13.05 19.97-18.56 1.6 0.13 3.2 0.32 4.74 0.58 5.12 0.83 12.61 2.88 20.03 5.44 3.26 4.54 6.85 9.41 10.62 14.01z"/>
			<path class="s10" d="m219.84 87.68c-0.77-0.51-1.47-1.02-2.25-1.54-12.11-9.98-26.08-17.72-41.4-22.59-11.98-3.9-24.8-5.95-38.13-5.95-17.24 0-33.71 3.52-48.65 9.79 15.89 24.13 45.44 54.91 45.44 105.41 0 29.95-13.39 51.2-13.39 51.2 4.55-11.9 6.99-24.83 6.99-38.4 0-1.98-0.07-4.03-0.2-5.95-0.06-1.99-0.25-3.97-0.44-5.95q-0.58-5-1.54-9.8c-0.19-1.08-0.45-2.11-0.7-3.2-0.32-1.34-0.64-2.75-1.03-4.09-0.45-1.67-0.96-3.27-1.47-4.93q-1.74-5.18-3.97-10.18c-0.32-0.76-0.71-1.6-1.09-2.36-6.22-13.12-15-24.84-25.7-34.44-0.2-0.19-0.32-0.38-0.52-0.51-9.29-9.53-16.92-18.24-22.94-25.73-8.85-10.88-16.99-23.1-21.09-29.44 19.1-10.81 41.15-17.02 64.67-17.02 44.41 0 83.63 22.02 107.41 55.68z"/>
			<path class="s10" d="m122.68 221.82c0.45-0.83 0.96-1.85 1.6-3.13-0.58 1.28-1.15 2.3-1.6 3.13z"/>
		</g>
	</g>
	<g id="Git">
	</g>
	<g id="Layer 1">
	</g>
</svg>