<svg version="1.2" xmlns="http://www.w3.org/2000/svg" viewBox="0 0 256 256" width="256" height="256">
	<style>
		.s0 { fill: #c3c3c3 } 
	</style>
	<path class="s0" d="m127.9 0c-70.15 0-126.9 57.3-126.9 128 0 70.7 56.75 128 126.9 128 70.1 0 126.9-57.3 126.9-128 0-70.7-56.8-128-126.9-128zm0 5.65c32.4 0 62.85 12.75 85.8 35.85 22.85 23 35.6 54.15 35.55 86.55 0 32.65-12.65 63.4-35.55 86.55-22.65 22.9-53.55 35.8-85.8 35.8-32.25 0.05-63.15-12.85-85.8-35.85-22.85-23-35.65-54.15-35.6-86.55 0-32.65 12.65-63.4 35.55-86.55 22.65-23 53.6-35.9 85.85-35.8zm-6.35 45c-20.65 5.55-39.8 16.15-65.3 45.4-25.5 29.3-20.7 53.45-20.7 53.45 0 0 7.05-16.65 23.95-34.15 8.05-8.3 14-11.1 18.15-11.1 3.65-0.2 6.75 2.75 6.75 6.4v59.4c0 5.9-3.8 7.15-7.3 7.1-2.95-0.05-5.7-1.1-5.7-1.1 17.4 25.25 58.95 28.8 58.95 28.8l18.25-19.5 0.4 0.4 16.7 14.25c30.6-18.15 45.35-51.85 45.35-51.85-13.65 14.4-22.35 17.8-27.5 17.8-4.6-0.05-6.4-2.7-6.4-2.7-0.25-1.25-0.65-19.35-0.85-37.4-0.15-18.7 0-37.45 0.9-37.5 5.3-9.9 22.15-29.9 22.15-29.9-31.45 6.2-48.6 26.85-48.6 26.85-5.1-4-15.4-3.35-15.4-3.35 4.85 2.65 9.65 10.4 9.65 16.85v63.15c0 0-10.55 9.3-18.65 9.3-4.85 0-7.8-2.65-9.4-4.8-0.65-0.85-1.15-1.75-1.6-2.75v-78c-1.15 0.85-2.5 1.3-3.85 1.35-1.75 0-3.55-0.85-4.75-3.4-0.9-1.9-1.5-4.8-1.5-9 0.05-14.45 16.3-24 16.3-24z"/>
	<g id="Layer 1">
	</g>
</svg>